<?xml version="1.0" encoding="utf-8"?>
<!-- Generator: Adobe Illustrator 25.4.1, SVG Export Plug-In . SVG Version: 6.00 Build 0)  -->
<svg version="1.1" id="Слой_1" xmlns="http://www.w3.org/2000/svg" xmlns:xlink="http://www.w3.org/1999/xlink" x="0px" y="0px"
	 viewBox="0 0 1624.2 1069.1" style="enable-background:new 0 0 1624.2 1069.1;" xml:space="preserve">
<g>
	<g>
		<path style="fill:#DD6B27;" d="M603.9,807.3c0,1.9-0.3,3.7-0.9,5.5c-0.6,1.8-1.5,3.4-2.7,4.9c-1.2,1.4-2.8,2.6-4.6,3.5
			c-1.9,0.9-4.2,1.4-6.9,1.4h-11.6v20.4c0,0.5-0.1,0.8-0.2,0.9c-0.2,0.2-0.4,0.2-0.9,0.2H574c-0.4,0-0.7-0.1-0.9-0.2
			c-0.2-0.2-0.2-0.5-0.2-0.9v-49.2c0-0.4,0.1-0.6,0.2-0.8c0.2-0.2,0.5-0.2,0.9-0.2h14.6c2.2,0,4.2,0.3,6,0.9
			c1.9,0.6,3.5,1.5,4.8,2.7c1.4,1.2,2.4,2.7,3.2,4.5C603.5,802.8,603.9,804.9,603.9,807.3z M599.3,807.4c0-3.7-1.1-6.4-3.3-8.1
			c-2.2-1.7-5-2.6-8.4-2.5h-10.5v22h11.5c0.6,0,1.5-0.1,2.7-0.3c1.2-0.2,2.4-0.7,3.5-1.5c1.2-0.8,2.2-1.9,3-3.4
			C598.9,811.9,599.3,809.9,599.3,807.4z"/>
		<path style="fill:#DD6B27;" d="M626,844.7c-3.6,0-6.3-0.6-8.4-1.8c-2-1.2-3.5-2.7-4.5-4.7c-1-1.9-1.6-4.1-1.9-6.5
			c-0.2-2.4-0.3-4.8-0.3-7.2c0-2,0.1-4.1,0.4-6.3c0.3-2.2,1-4.3,2-6.2c1.1-1.9,2.6-3.4,4.6-4.7c2-1.2,4.7-1.9,8.1-1.9
			c3.5,0,6.2,0.5,8.3,1.6c2.1,1.1,3.6,2.5,4.7,4.3c1.1,1.8,1.8,3.8,2.1,6.1c0.3,2.3,0.5,4.6,0.5,7c0,2.4-0.1,4.8-0.4,7.2
			c-0.3,2.4-0.9,4.6-1.9,6.5c-1,1.9-2.6,3.5-4.7,4.7C632.5,844.1,629.6,844.7,626,844.7z M626,809.4c-2.3,0-4.1,0.3-5.5,1
			c-1.4,0.7-2.5,1.7-3.3,3.1s-1.3,3-1.6,5c-0.3,1.9-0.4,4.2-0.4,6.6c0,2.5,0.1,4.7,0.4,6.6c0.3,1.9,0.8,3.6,1.6,5
			c0.8,1.4,1.9,2.4,3.3,3.1c1.4,0.7,3.2,1,5.5,1c2.3,0,4.2-0.3,5.7-1s2.6-1.7,3.4-3c0.8-1.3,1.4-3,1.7-4.9c0.3-1.9,0.5-4.2,0.5-6.8
			c0-2.5-0.1-4.8-0.4-6.7c-0.3-1.9-0.8-3.6-1.7-4.9c-0.8-1.3-2-2.4-3.4-3.1C630.3,809.7,628.4,809.4,626,809.4z"/>
		<path style="fill:#DD6B27;" d="M665.5,805.6c0.7,0,1.5,0,2.5,0.1c1,0.1,2,0.1,3,0.3c1,0.1,2,0.3,3,0.5c1,0.2,1.9,0.5,2.6,0.8
			c0.4,0.2,0.6,0.4,0.7,0.6c0,0.3,0,0.5,0,0.7l-0.3,1.3c-0.1,0.3-0.2,0.4-0.5,0.5c-0.3,0.1-0.6,0.1-0.9,0c-0.7-0.1-1.4-0.1-2.3-0.2
			c-0.9-0.1-1.7-0.2-2.7-0.3s-1.8-0.1-2.7-0.2c-0.9-0.1-1.7-0.1-2.5-0.1c-2,0-3.7,0.2-5,0.7c-1.3,0.5-2.3,1.3-3.1,2.5
			c-0.7,1.2-1.3,2.8-1.5,4.7c-0.3,2-0.4,4.4-0.4,7.4c0,3.1,0.2,5.6,0.5,7.6c0.3,2,0.8,3.7,1.6,4.9c0.7,1.2,1.8,2.1,3.1,2.6
			c1.3,0.5,2.9,0.8,5,0.8c0.5,0,1.2,0,2.1-0.1c0.9-0.1,1.8-0.1,2.8-0.2c1-0.1,2-0.2,3-0.2c1-0.1,1.9-0.2,2.7-0.3c0.6,0,1,0.2,1,0.7
			l0.2,1c0.1,0.3,0,0.5-0.1,0.7c-0.1,0.2-0.4,0.4-0.8,0.6c-1.2,0.5-2.9,0.9-5,1.1c-2.1,0.3-4.1,0.4-6,0.4c-3.2,0-5.8-0.5-7.7-1.5
			c-1.9-1-3.4-2.3-4.5-4.1c-1-1.8-1.7-3.8-2.1-6.2c-0.3-2.4-0.5-5-0.5-7.9c0-2.5,0.2-5,0.5-7.3c0.3-2.3,1-4.4,2.1-6.2
			c1-1.8,2.5-3.2,4.5-4.3C659.7,806.1,662.2,805.6,665.5,805.6z"/>
		<path style="fill:#DD6B27;" d="M698.7,805.6c0.7,0,1.5,0,2.5,0.1c1,0.1,2,0.1,3,0.3c1,0.1,2,0.3,3,0.5c1,0.2,1.9,0.5,2.6,0.8
			c0.4,0.2,0.6,0.4,0.7,0.6c0,0.3,0,0.5,0,0.7l-0.3,1.3c-0.1,0.3-0.2,0.4-0.5,0.5c-0.3,0.1-0.6,0.1-0.9,0c-0.7-0.1-1.4-0.1-2.3-0.2
			c-0.9-0.1-1.7-0.2-2.7-0.3s-1.8-0.1-2.7-0.2c-0.9-0.1-1.7-0.1-2.5-0.1c-2,0-3.7,0.2-5,0.7c-1.3,0.5-2.3,1.3-3.1,2.5
			c-0.7,1.2-1.3,2.8-1.5,4.7c-0.3,2-0.4,4.4-0.4,7.4c0,3.1,0.2,5.6,0.5,7.6c0.3,2,0.8,3.7,1.6,4.9c0.7,1.2,1.8,2.1,3.1,2.6
			c1.3,0.5,2.9,0.8,5,0.8c0.5,0,1.2,0,2.1-0.1c0.9-0.1,1.8-0.1,2.8-0.2c1-0.1,2-0.2,3-0.2c1-0.1,1.9-0.2,2.7-0.3c0.6,0,1,0.2,1,0.7
			l0.2,1c0.1,0.3,0,0.5-0.1,0.7c-0.1,0.2-0.4,0.4-0.8,0.6c-1.2,0.5-2.9,0.9-5,1.1c-2.1,0.3-4.1,0.4-6,0.4c-3.2,0-5.8-0.5-7.7-1.5
			c-1.9-1-3.4-2.3-4.5-4.1c-1-1.8-1.7-3.8-2.1-6.2c-0.3-2.4-0.5-5-0.5-7.9c0-2.5,0.2-5,0.5-7.3c0.3-2.3,1-4.4,2.1-6.2
			c1-1.8,2.5-3.2,4.5-4.3C692.9,806.1,695.5,805.6,698.7,805.6z"/>
		<path style="fill:#DD6B27;" d="M719.1,807.4c0-0.7,0.4-1.1,1.1-1.1h2.1c0.7,0,1,0.4,1,1.1v29.4l9.8-13.5l11.8-16
			c0.3-0.3,0.5-0.5,0.7-0.7c0.2-0.2,0.5-0.3,0.9-0.3h1.8c0.7,0,1.1,0.3,1.1,1V843c0,0.7-0.4,1.1-1.2,1.1h-2c-0.8,0-1.2-0.4-1.2-1.1
			v-30.3l-8.4,11.8L723,843.3c-0.2,0.2-0.3,0.4-0.5,0.5c-0.2,0.2-0.5,0.2-0.9,0.2h-1.5c-0.7,0-1-0.4-1-1.1V807.4z"/>
		<path style="fill:#DD6B27;" d="M760.3,807.4c0-0.7,0.4-1.1,1.1-1.1h2.1c0.7,0,1,0.4,1,1.1v29.4l9.8-13.5l11.8-16
			c0.3-0.3,0.5-0.5,0.7-0.7c0.2-0.2,0.5-0.3,0.9-0.3h1.8c0.7,0,1.1,0.3,1.1,1V843c0,0.7-0.4,1.1-1.2,1.1h-2c-0.8,0-1.2-0.4-1.2-1.1
			v-30.3l-8.4,11.8l-13.7,18.7c-0.2,0.2-0.3,0.4-0.5,0.5c-0.2,0.2-0.5,0.2-0.9,0.2h-1.5c-0.7,0-1-0.4-1-1.1V807.4z M774.9,801.3
			c-2,0-4-0.5-5.8-1.5c-1.9-1-3.4-2.6-4.5-4.8c-0.1-0.2-0.2-0.5-0.3-0.9c-0.1-0.4-0.1-0.7,0.2-0.9l1.2-0.9c0.4-0.3,0.8-0.2,1.2,0.2
			c0.7,0.9,1.3,1.7,1.9,2.3c0.6,0.6,1.3,1.1,1.9,1.5c0.6,0.4,1.3,0.7,2.1,0.9c0.7,0.2,1.5,0.3,2.4,0.3c1.5,0,2.9-0.4,4-1.2
			c1.1-0.8,2.4-2.1,3.9-3.9c0.4-0.4,0.7-0.4,1.2-0.2l1.2,0.9c0.3,0.2,0.3,0.5,0.2,0.9c-0.2,0.4-0.3,0.7-0.4,0.9
			c-1.2,2.3-2.7,3.9-4.5,5C778.7,800.8,776.8,801.3,774.9,801.3z"/>
		<path style="fill:#DD6B27;" d="M815.2,805.6c0.7,0,1.5,0,2.5,0.1c1,0.1,2,0.1,3,0.3s2,0.3,3,0.5c1,0.2,1.9,0.5,2.6,0.8
			c0.4,0.2,0.6,0.4,0.7,0.6c0,0.3,0,0.5,0,0.7l-0.3,1.3c-0.1,0.3-0.2,0.4-0.5,0.5c-0.3,0.1-0.6,0.1-0.9,0c-0.7-0.1-1.4-0.1-2.3-0.2
			s-1.7-0.2-2.7-0.3c-0.9-0.1-1.8-0.1-2.8-0.2c-0.9-0.1-1.7-0.1-2.5-0.1c-2,0-3.7,0.2-5,0.7c-1.3,0.5-2.3,1.3-3.1,2.5
			c-0.7,1.2-1.3,2.8-1.5,4.7c-0.3,2-0.4,4.4-0.4,7.4c0,3.1,0.2,5.6,0.5,7.6c0.3,2,0.8,3.7,1.6,4.9c0.7,1.2,1.8,2.1,3.1,2.6
			c1.3,0.5,2.9,0.8,5,0.8c0.5,0,1.2,0,2.1-0.1c0.9-0.1,1.8-0.1,2.8-0.2c1-0.1,2-0.2,3-0.2c1-0.1,1.9-0.2,2.8-0.3c0.6,0,1,0.2,1,0.7
			l0.2,1c0.1,0.3,0,0.5-0.1,0.7s-0.4,0.4-0.8,0.6c-1.2,0.5-2.9,0.9-5,1.1c-2.1,0.3-4.1,0.4-6,0.4c-3.2,0-5.8-0.5-7.7-1.5
			c-1.9-1-3.4-2.3-4.5-4.1c-1-1.8-1.7-3.8-2.1-6.2c-0.3-2.4-0.5-5-0.5-7.9c0-2.5,0.2-5,0.5-7.3c0.3-2.3,1-4.4,2.1-6.2
			c1-1.8,2.5-3.2,4.5-4.3C809.4,806.1,812,805.6,815.2,805.6z"/>
		<path style="fill:#DD6B27;" d="M839.9,843.2c0,0.6-0.3,0.9-0.9,0.9h-2.7c-0.5,0-0.8-0.3-0.8-0.9v-36c0-0.6,0.3-0.9,0.8-0.9h2.7
			c0.6,0,0.9,0.3,0.9,0.9v15.7h6.7c0.7,0,1.4-0.1,2.2-0.2c0.8-0.1,1.5-0.4,2.3-0.9c0.7-0.5,1.5-1.1,2.1-2c0.7-0.9,1.2-2,1.7-3.4
			l3.1-9.1c0.2-0.7,0.6-1,1.3-1h1.9c0.6,0,0.9,0.1,1,0.3c0.1,0.2,0,0.5-0.1,0.9l-3,9.1c-0.7,2.1-1.5,3.8-2.4,5.1
			c-0.9,1.3-2,2.2-3.5,2.6c0.9,0.3,1.7,0.6,2.4,1c0.7,0.4,1.3,1,1.8,1.6c0.5,0.6,1,1.4,1.3,2.3c0.4,0.9,0.7,1.9,1.2,3.1l3.5,10.4
			c0.1,0.4,0.1,0.7,0,0.9c-0.1,0.2-0.4,0.3-0.9,0.3h-2.2c-0.3,0-0.6-0.1-0.8-0.2c-0.2-0.1-0.4-0.4-0.5-0.8l-3.3-9.9
			c-0.5-1.4-1-2.5-1.6-3.4c-0.6-0.9-1.3-1.5-2-2c-0.7-0.5-1.5-0.8-2.4-0.9c-0.9-0.2-1.8-0.2-2.7-0.2h-7V843.2z"/>
		<path style="fill:#DD6B27;" d="M872,807.4c0-0.7,0.4-1.1,1.1-1.1h2.1c0.7,0,1,0.4,1,1.1v29.4l9.8-13.5l11.8-16
			c0.3-0.3,0.5-0.5,0.7-0.7c0.2-0.2,0.5-0.3,0.9-0.3h1.8c0.7,0,1.1,0.3,1.1,1V843c0,0.7-0.4,1.1-1.2,1.1h-2c-0.8,0-1.2-0.4-1.2-1.1
			v-30.3l-8.4,11.8l-13.7,18.7c-0.2,0.2-0.3,0.4-0.5,0.5c-0.2,0.2-0.5,0.2-0.9,0.2H873c-0.7,0-1-0.4-1-1.1V807.4z"/>
		<path style="fill:#DD6B27;" d="M913.1,807.4c0-0.7,0.4-1.1,1.1-1.1h2.1c0.7,0,1,0.4,1,1.1v29.4l9.8-13.5l11.8-16
			c0.3-0.3,0.5-0.5,0.7-0.7c0.2-0.2,0.5-0.3,0.9-0.3h1.8c0.7,0,1.1,0.3,1.1,1V843c0,0.7-0.4,1.1-1.2,1.1h-2c-0.8,0-1.2-0.4-1.2-1.1
			v-30.3l-8.4,11.8L917,843.3c-0.2,0.2-0.3,0.4-0.5,0.5c-0.2,0.2-0.5,0.2-0.9,0.2h-1.5c-0.7,0-1-0.4-1-1.1V807.4z M927.8,801.3
			c-2,0-4-0.5-5.8-1.5c-1.9-1-3.4-2.6-4.5-4.8c-0.1-0.2-0.2-0.5-0.3-0.9c-0.1-0.4-0.1-0.7,0.2-0.9l1.2-0.9c0.4-0.3,0.8-0.2,1.2,0.2
			c0.7,0.9,1.3,1.7,1.9,2.3c0.6,0.6,1.3,1.1,1.9,1.5c0.6,0.4,1.3,0.7,2.1,0.9c0.7,0.2,1.5,0.3,2.4,0.3c1.5,0,2.9-0.4,4-1.2
			c1.1-0.8,2.4-2.1,3.9-3.9c0.4-0.4,0.7-0.4,1.2-0.2l1.2,0.9c0.3,0.2,0.3,0.5,0.2,0.9c-0.2,0.4-0.3,0.7-0.4,0.9
			c-1.2,2.3-2.7,3.9-4.5,5C931.6,800.8,929.7,801.3,927.8,801.3z"/>
		<path style="fill:#DD6B27;" d="M597.1,887.6h-11.7v32.9c0,0.7-0.4,1-1.2,1h-1.9c-0.8,0-1.3-0.3-1.3-1v-32.9h-11.6
			c-0.8,0-1.2-0.4-1.2-1.1v-1.7c0-0.7,0.4-1,1.2-1h27.7c0.4,0,0.7,0.1,0.8,0.3c0.1,0.2,0.2,0.4,0.2,0.7v1.7
			C598.2,887.2,597.9,887.6,597.1,887.6z"/>
		<path style="fill:#DD6B27;" d="M619.8,883c3.3,0,5.9,0.5,7.9,1.5c2,1,3.5,2.3,4.7,3.8c1.1,1.6,1.9,3.4,2.3,5.4
			c0.4,2,0.6,4.1,0.6,6.2c0,1.2-0.2,2.1-0.7,2.8c-0.4,0.7-1.3,1-2.5,1h-23c0.1,2.6,0.3,4.8,0.6,6.6c0.3,1.8,0.8,3.3,1.5,4.5
			c0.7,1.1,1.8,2,3.2,2.5c1.4,0.5,3.2,0.8,5.5,0.8c0.8,0,1.7,0,2.8-0.1c1.1-0.1,2.2-0.2,3.3-0.3c1.1-0.1,2.2-0.2,3.3-0.3
			c1.1-0.1,1.9-0.2,2.6-0.2c0.5-0.1,0.9,0.2,1,0.6l0.2,1.2c0.2,0.6-0.1,1-0.9,1.3c-0.6,0.2-1.4,0.4-2.5,0.7c-1,0.2-2.1,0.4-3.3,0.6
			c-1.2,0.2-2.4,0.3-3.6,0.4c-1.2,0.1-2.3,0.2-3.3,0.2c-3.5,0-6.2-0.5-8.2-1.6c-2-1.1-3.5-2.5-4.5-4.3c-1-1.8-1.6-3.9-1.9-6.3
			c-0.3-2.4-0.4-4.9-0.4-7.5c0-2.2,0.1-4.5,0.4-6.8c0.3-2.3,0.9-4.4,1.9-6.2c1-1.9,2.5-3.4,4.6-4.6C613.5,883.6,616.3,883,619.8,883
			z M619.8,886.8c-2.4,0-4.2,0.3-5.6,0.9c-1.4,0.6-2.4,1.5-3.2,2.6c-0.7,1.1-1.2,2.5-1.5,4.2c-0.2,1.7-0.4,3.6-0.5,5.7h21.7
			c-0.1-1.6-0.2-3.2-0.4-4.8c-0.2-1.6-0.7-3.1-1.4-4.3c-0.7-1.3-1.8-2.3-3.3-3.1C624.2,887.2,622.3,886.8,619.8,886.8z"/>
		<path style="fill:#DD6B27;" d="M670.8,921.2c-0.1,0.2-0.3,0.3-0.6,0.3h-3.1c-0.3,0-0.4-0.1-0.5-0.2c-0.1-0.2-0.2-0.3-0.4-0.5
			l-9.9-14.9l-9.8,14.9c-0.2,0.2-0.3,0.4-0.4,0.5c-0.1,0.2-0.3,0.2-0.5,0.2h-3.2c-0.3,0-0.5-0.1-0.6-0.3c-0.1-0.2,0-0.4,0.1-0.6
			l12.1-18.4l-11.5-17.5c-0.2-0.3-0.2-0.5-0.1-0.7c0.1-0.2,0.3-0.3,0.6-0.3h3.1c0.3,0,0.4,0.1,0.5,0.2c0.1,0.1,0.2,0.3,0.4,0.6
			l9.4,14.2l9.4-14.2c0.1-0.3,0.2-0.5,0.3-0.6c0.1-0.1,0.3-0.2,0.6-0.2h3.1c0.3,0,0.5,0.1,0.6,0.3c0.1,0.2,0,0.4-0.1,0.7l-11.6,17.5
			l12.2,18.4C670.9,920.8,670.9,921,670.8,921.2z"/>
		<path style="fill:#DD6B27;" d="M708.1,921.5h-2c-0.8,0-1.3-0.3-1.3-1v-17.1h-21.3v17.1c0,0.7-0.4,1-1.2,1h-2.1
			c-0.7,0-1.1-0.3-1.1-1v-35.7c0-0.7,0.4-1,1.1-1h2.1c0.8,0,1.2,0.3,1.2,1v14.8h21.3v-14.8c0-0.7,0.4-1,1.3-1h2c0.7,0,1.1,0.3,1.1,1
			v35.7C709.2,921.2,708.8,921.5,708.1,921.5z"/>
		<path style="fill:#DD6B27;" d="M734.3,922.1c-3.6,0-6.3-0.6-8.4-1.8c-2-1.2-3.5-2.7-4.5-4.7c-1-1.9-1.6-4.1-1.9-6.5
			c-0.2-2.4-0.3-4.8-0.3-7.2c0-2,0.1-4.1,0.4-6.3c0.3-2.2,1-4.3,2-6.2c1.1-1.9,2.6-3.4,4.6-4.7c2-1.2,4.7-1.9,8.1-1.9
			c3.5,0,6.2,0.5,8.3,1.6c2.1,1.1,3.6,2.5,4.7,4.3c1.1,1.8,1.8,3.8,2.1,6.1c0.3,2.3,0.5,4.6,0.5,7c0,2.4-0.1,4.8-0.4,7.2
			c-0.3,2.4-0.9,4.6-1.9,6.5c-1,1.9-2.6,3.5-4.7,4.7C740.8,921.5,737.9,922.1,734.3,922.1z M734.3,886.8c-2.3,0-4.1,0.3-5.5,1
			c-1.4,0.7-2.5,1.7-3.3,3.1s-1.3,3-1.6,5c-0.3,1.9-0.4,4.2-0.4,6.6c0,2.5,0.1,4.7,0.4,6.6c0.3,1.9,0.8,3.6,1.6,5
			c0.8,1.4,1.9,2.4,3.3,3.1c1.4,0.7,3.2,1,5.5,1c2.3,0,4.2-0.3,5.7-1s2.6-1.7,3.4-3c0.8-1.3,1.4-3,1.7-4.9c0.3-1.9,0.5-4.2,0.5-6.8
			c0-2.5-0.1-4.8-0.4-6.7c-0.3-1.9-0.8-3.6-1.7-4.9c-0.8-1.3-2-2.4-3.4-3.1C738.6,887.2,736.7,886.8,734.3,886.8z"/>
		<path style="fill:#DD6B27;" d="M788.9,883.8c0.7,0,1.1,0.3,1.1,1v35.7c0,0.7-0.3,1-1,1h-2.1c-0.8,0-1.2-0.3-1.2-1v-32.9H770
			l-1.7,20.9c-0.2,1.8-0.4,3.5-0.7,5.1c-0.3,1.6-0.8,3.1-1.6,4.3c-0.8,1.3-1.9,2.3-3.4,3c-1.5,0.7-3.5,1.1-6,1.1
			c-0.7,0-1.1-0.3-1.1-0.9v-1.6c0-0.4,0.1-0.6,0.2-0.7c0.1-0.1,0.4-0.1,0.7-0.2c1.5-0.2,2.8-0.5,3.7-0.9c0.9-0.5,1.7-1.1,2.2-2.1
			c0.6-0.9,1-2.1,1.3-3.5c0.3-1.4,0.5-3.3,0.7-5.4l1.7-19.7c0.1-1.3,0.5-2.2,1-2.7c0.6-0.5,1.5-0.7,2.8-0.7H788.9z"/>
		<path style="fill:#DD6B27;" d="M815.2,922.1c-3.6,0-6.3-0.6-8.4-1.8c-2-1.2-3.5-2.7-4.5-4.7c-1-1.9-1.6-4.1-1.9-6.5
			c-0.2-2.4-0.3-4.8-0.3-7.2c0-2,0.1-4.1,0.4-6.3c0.3-2.2,1-4.3,2-6.2c1.1-1.9,2.6-3.4,4.6-4.7c2-1.2,4.7-1.9,8.1-1.9
			c3.5,0,6.2,0.5,8.3,1.6c2.1,1.1,3.6,2.5,4.7,4.3c1.1,1.8,1.8,3.8,2.1,6.1c0.3,2.3,0.5,4.6,0.5,7c0,2.4-0.1,4.8-0.4,7.2
			c-0.3,2.4-0.9,4.6-1.9,6.5c-1,1.9-2.6,3.5-4.7,4.7C821.7,921.5,818.9,922.1,815.2,922.1z M815.2,886.8c-2.3,0-4.1,0.3-5.5,1
			c-1.4,0.7-2.5,1.7-3.3,3.1s-1.3,3-1.6,5c-0.3,1.9-0.4,4.2-0.4,6.6c0,2.5,0.1,4.7,0.4,6.6c0.3,1.9,0.8,3.6,1.6,5
			c0.8,1.4,1.9,2.4,3.3,3.1c1.4,0.7,3.2,1,5.5,1c2.3,0,4.2-0.3,5.7-1c1.5-0.7,2.6-1.7,3.4-3c0.8-1.3,1.4-3,1.7-4.9s0.5-4.2,0.5-6.8
			c0-2.5-0.1-4.8-0.4-6.7c-0.3-1.9-0.8-3.6-1.7-4.9c-0.8-1.3-2-2.4-3.4-3.1C819.5,887.2,817.6,886.8,815.2,886.8z"/>
		<path style="fill:#DD6B27;" d="M866,887.4c-0.2,0.2-0.5,0.2-0.9,0.2h-20.1v32.8c0,0.7-0.4,1.1-1.1,1.1h-1.9
			c-0.8,0-1.2-0.4-1.2-1.1v-35.6c0-0.7,0.4-1,1.1-1h23.3c0.7,0,1.1,0.3,1.1,1v1.7C866.2,886.9,866.1,887.2,866,887.4z"/>
		<path style="fill:#DD6B27;" d="M874.5,884.9c0-0.7,0.4-1.1,1.1-1.1h2.1c0.7,0,1,0.4,1,1.1v29.4l9.8-13.5l11.8-16
			c0.3-0.3,0.5-0.5,0.7-0.7c0.2-0.2,0.5-0.3,0.9-0.3h1.8c0.7,0,1.1,0.3,1.1,1v35.6c0,0.7-0.4,1.1-1.2,1.1h-2c-0.8,0-1.2-0.4-1.2-1.1
			v-30.3l-8.4,11.8l-13.7,18.7c-0.2,0.2-0.3,0.4-0.5,0.5c-0.2,0.2-0.5,0.2-0.9,0.2h-1.5c-0.7,0-1-0.4-1-1.1V884.9z"/>
		<path style="fill:#DD6B27;" d="M918,898c0.2,1.4,0.5,2.5,1,3.3c0.5,0.8,1.2,1.4,2.1,1.7c0.9,0.3,2.1,0.5,3.6,0.5
			c1.1,0,2.3-0.2,3.6-0.6c1.3-0.4,2.6-0.9,3.9-1.4c1.3-0.5,2.5-1.1,3.6-1.6c1.1-0.5,1.9-1,2.5-1.3V885c0-0.8,0.4-1.2,1.1-1.2h2
			c0.4,0,0.7,0.1,0.8,0.2c0.1,0.2,0.2,0.5,0.2,0.9v35.2c0,0.8-0.3,1.2-1,1.2h-2c-0.4,0-0.7-0.1-0.9-0.2c-0.2-0.2-0.3-0.5-0.3-1V902
			c-0.5,0.4-1.3,0.8-2.2,1.4c-1,0.6-2.1,1.2-3.3,1.8c-1.2,0.6-2.6,1.1-4.1,1.5c-1.5,0.4-3,0.6-4.5,0.6c-2.4,0-4.3-0.3-5.7-1
			c-1.4-0.6-2.5-1.5-3.2-2.6c-0.7-1.1-1.2-2.4-1.5-4c-0.2-1.5-0.3-3.3-0.3-5.1V885c0-0.8,0.4-1.2,1.2-1.2h2c0.4,0,0.7,0.1,0.8,0.2
			c0.1,0.2,0.2,0.5,0.2,0.9v7.6C917.8,894.8,917.9,896.6,918,898z"/>
		<path style="fill:#DD6B27;" d="M967.8,883c3.3,0,5.9,0.5,7.9,1.5c2,1,3.5,2.3,4.7,3.8c1.1,1.6,1.9,3.4,2.3,5.4
			c0.4,2,0.6,4.1,0.6,6.2c0,1.2-0.2,2.1-0.7,2.8c-0.4,0.7-1.3,1-2.5,1h-23c0.1,2.6,0.3,4.8,0.6,6.6c0.3,1.8,0.8,3.3,1.5,4.5
			c0.7,1.1,1.8,2,3.2,2.5c1.4,0.5,3.2,0.8,5.5,0.8c0.8,0,1.7,0,2.8-0.1c1.1-0.1,2.2-0.2,3.3-0.3c1.1-0.1,2.2-0.2,3.3-0.3
			c1.1-0.1,1.9-0.2,2.6-0.2c0.5-0.1,0.9,0.2,1,0.6l0.2,1.2c0.2,0.6-0.1,1-0.9,1.3c-0.6,0.2-1.4,0.4-2.5,0.7c-1,0.2-2.1,0.4-3.3,0.6
			c-1.2,0.2-2.4,0.3-3.6,0.4c-1.2,0.1-2.3,0.2-3.3,0.2c-3.5,0-6.2-0.5-8.2-1.6c-2-1.1-3.5-2.5-4.5-4.3c-1-1.8-1.6-3.9-1.9-6.3
			c-0.3-2.4-0.4-4.9-0.4-7.5c0-2.2,0.1-4.5,0.4-6.8c0.3-2.3,0.9-4.4,1.9-6.2c1-1.9,2.5-3.4,4.6-4.6C961.4,883.6,964.2,883,967.8,883
			z M967.8,886.8c-2.4,0-4.2,0.3-5.6,0.9c-1.4,0.6-2.4,1.5-3.2,2.6c-0.7,1.1-1.2,2.5-1.5,4.2c-0.2,1.7-0.4,3.6-0.5,5.7h21.7
			c-0.1-1.6-0.2-3.2-0.4-4.8c-0.2-1.6-0.7-3.1-1.4-4.3c-0.7-1.3-1.8-2.3-3.3-3.1C972.2,887.2,970.3,886.8,967.8,886.8z"/>
		<path style="fill:#DD6B27;" d="M1006.8,883c0.7,0,1.5,0,2.5,0.1c1,0.1,2,0.1,3,0.3c1,0.1,2,0.3,3,0.5c1,0.2,1.9,0.5,2.6,0.8
			c0.4,0.2,0.6,0.4,0.7,0.6c0,0.3,0,0.5,0,0.7l-0.3,1.3c-0.1,0.3-0.2,0.4-0.5,0.5c-0.3,0.1-0.6,0.1-0.9,0c-0.7-0.1-1.4-0.1-2.3-0.2
			s-1.7-0.2-2.7-0.3c-0.9-0.1-1.8-0.1-2.7-0.2c-0.9-0.1-1.7-0.1-2.5-0.1c-2,0-3.7,0.2-5,0.7s-2.3,1.3-3.1,2.5
			c-0.7,1.2-1.3,2.8-1.5,4.7c-0.3,2-0.4,4.4-0.4,7.4c0,3.1,0.2,5.6,0.5,7.6s0.8,3.7,1.6,4.9c0.7,1.2,1.8,2.1,3.1,2.6
			c1.3,0.5,2.9,0.8,5,0.8c0.5,0,1.2,0,2.1-0.1c0.9-0.1,1.8-0.1,2.8-0.2c1-0.1,2-0.2,3-0.2c1-0.1,1.9-0.2,2.7-0.3c0.6,0,1,0.2,1,0.7
			l0.2,1c0.1,0.3,0,0.5-0.1,0.7s-0.4,0.4-0.8,0.6c-1.2,0.5-2.9,0.9-5,1.1c-2.1,0.3-4.1,0.4-6,0.4c-3.2,0-5.8-0.5-7.7-1.5
			c-1.9-1-3.4-2.3-4.5-4.1c-1-1.8-1.7-3.8-2.1-6.2c-0.3-2.4-0.5-5-0.5-7.9c0-2.5,0.2-5,0.5-7.3c0.3-2.3,1-4.4,2.1-6.2
			c1-1.8,2.5-3.2,4.5-4.3C1001.1,883.6,1003.6,883,1006.8,883z"/>
		<path style="fill:#DD6B27;" d="M1031.6,920.7c0,0.6-0.3,0.9-0.9,0.9h-2.7c-0.5,0-0.8-0.3-0.8-0.9v-36c0-0.6,0.3-0.9,0.8-0.9h2.7
			c0.6,0,0.9,0.3,0.9,0.9v15.7h6.7c0.7,0,1.4-0.1,2.2-0.2c0.8-0.1,1.5-0.4,2.3-0.9c0.7-0.5,1.5-1.1,2.1-2c0.7-0.9,1.2-2,1.7-3.4
			l3.1-9.1c0.2-0.7,0.6-1,1.3-1h1.9c0.6,0,0.9,0.1,1,0.3c0.1,0.2,0,0.5-0.1,0.9l-3,9.1c-0.7,2.1-1.5,3.8-2.4,5.1
			c-0.9,1.3-2,2.2-3.5,2.6c0.9,0.3,1.7,0.6,2.4,1c0.7,0.4,1.3,1,1.8,1.6c0.5,0.6,1,1.4,1.3,2.3c0.4,0.9,0.7,1.9,1.2,3.1l3.5,10.4
			c0.1,0.4,0.1,0.7,0,0.9c-0.1,0.2-0.4,0.3-0.9,0.3h-2.2c-0.3,0-0.6-0.1-0.8-0.2c-0.2-0.1-0.4-0.4-0.5-0.8l-3.3-9.9
			c-0.5-1.4-1-2.5-1.6-3.4c-0.6-0.9-1.3-1.5-2-2c-0.7-0.5-1.5-0.8-2.4-0.9c-0.9-0.2-1.8-0.2-2.7-0.2h-7V920.7z"/>
		<path style="fill:#DD6B27;" d="M1063.6,884.9c0-0.7,0.4-1.1,1.1-1.1h2.1c0.7,0,1,0.4,1,1.1v29.4l9.8-13.5l11.8-16
			c0.3-0.3,0.5-0.5,0.7-0.7c0.2-0.2,0.5-0.3,0.9-0.3h1.8c0.7,0,1.1,0.3,1.1,1v35.6c0,0.7-0.4,1.1-1.2,1.1h-2c-0.8,0-1.2-0.4-1.2-1.1
			v-30.3l-8.4,11.8l-13.7,18.7c-0.2,0.2-0.3,0.4-0.5,0.5c-0.2,0.2-0.5,0.2-0.9,0.2h-1.5c-0.7,0-1-0.4-1-1.1V884.9z"/>
		<path style="fill:#DD6B27;" d="M1104.8,884.9c0-0.7,0.4-1.1,1.1-1.1h2.1c0.7,0,1,0.4,1,1.1v29.4l9.8-13.5l11.8-16
			c0.3-0.3,0.5-0.5,0.7-0.7c0.2-0.2,0.5-0.3,0.9-0.3h1.8c0.7,0,1.1,0.3,1.1,1v35.6c0,0.7-0.4,1.1-1.2,1.1h-2c-0.8,0-1.2-0.4-1.2-1.1
			v-30.3l-8.4,11.8l-13.7,18.7c-0.2,0.2-0.3,0.4-0.5,0.5c-0.2,0.2-0.5,0.2-0.9,0.2h-1.5c-0.7,0-1-0.4-1-1.1V884.9z M1119.4,878.8
			c-2,0-4-0.5-5.8-1.5c-1.9-1-3.4-2.6-4.5-4.8c-0.1-0.2-0.2-0.5-0.3-0.9c-0.1-0.4-0.1-0.7,0.2-0.9l1.2-0.9c0.4-0.3,0.8-0.2,1.2,0.2
			c0.7,0.9,1.3,1.7,1.9,2.3c0.6,0.6,1.3,1.1,1.9,1.5c0.6,0.4,1.3,0.7,2.1,0.9c0.7,0.2,1.5,0.3,2.4,0.3c1.5,0,2.9-0.4,4-1.2
			c1.1-0.8,2.4-2.1,3.9-3.9c0.4-0.4,0.7-0.4,1.2-0.2l1.2,0.9c0.3,0.2,0.3,0.5,0.2,0.9c-0.2,0.4-0.3,0.7-0.4,0.9
			c-1.2,2.3-2.7,3.9-4.5,5C1123.2,878.2,1121.4,878.8,1119.4,878.8z"/>
		<path style="fill:#DD6B27;" d="M582.5,1011.6c-0.1,0.3-0.3,0.5-0.5,0.7c-0.2,0.2-0.5,0.2-0.9,0.2h-2.2c-0.6,0-0.8-0.3-0.6-0.9
			l4.2-12.1l-13.6-37.3c-0.1-0.3-0.1-0.5-0.1-0.7c0.1-0.2,0.2-0.3,0.5-0.3h2.8c0.4,0,0.7,0.3,0.9,0.9l10.3,28.3l1.4,4.3l1.3-4.5
			l9.4-28.3c0.1-0.3,0.2-0.4,0.3-0.5c0.1-0.1,0.2-0.2,0.5-0.2h3c0.3,0,0.5,0.1,0.5,0.2c0,0.2,0,0.4-0.1,0.6L582.5,1011.6z"/>
		<path style="fill:#DD6B27;" d="M637,998.9h-2c-0.8,0-1.3-0.3-1.3-1v-17.1h-21.3v17.1c0,0.7-0.4,1-1.2,1h-2.1c-0.7,0-1.1-0.3-1.1-1
			v-35.7c0-0.7,0.4-1,1.1-1h2.1c0.8,0,1.2,0.3,1.2,1V977h21.3v-14.8c0-0.7,0.4-1,1.3-1h2c0.7,0,1.1,0.3,1.1,1v35.7
			C638.1,998.6,637.8,998.9,637,998.9z"/>
		<path style="fill:#DD6B27;" d="M649,962.3c0-0.7,0.4-1.1,1.1-1.1h2.1c0.7,0,1,0.4,1,1.1v29.4l9.8-13.5l11.8-16
			c0.3-0.3,0.5-0.5,0.7-0.7c0.2-0.2,0.5-0.3,0.9-0.3h1.8c0.7,0,1.1,0.3,1.1,1v35.6c0,0.7-0.4,1.1-1.2,1.1h-2c-0.8,0-1.2-0.4-1.2-1.1
			v-30.3l-8.4,11.8l-13.7,18.7c-0.2,0.2-0.3,0.4-0.5,0.5c-0.2,0.2-0.5,0.2-0.9,0.2H650c-0.7,0-1-0.4-1-1.1V962.3z"/>
		<path style="fill:#DD6B27;" d="M706.7,961.2c4.1,0,7.1,0.9,8.9,2.7c1.8,1.8,2.8,4.2,2.8,7c0,0.6-0.1,1.3-0.2,2
			c-0.1,0.7-0.4,1.4-0.7,2.2c-0.3,0.7-0.8,1.4-1.5,2.1c-0.7,0.7-1.5,1.3-2.6,1.9c1.2,0.4,2.3,1,3.1,1.7c0.8,0.7,1.4,1.5,1.9,2.4
			c0.5,0.9,0.8,1.8,1,2.7c0.2,0.9,0.3,1.8,0.3,2.6c0,1.5-0.3,3-0.9,4.3c-0.6,1.3-1.4,2.4-2.5,3.3c-1.1,0.9-2.3,1.6-3.8,2.1
			c-1.4,0.5-3,0.7-4.8,0.7h-16c-0.6,0-1-0.1-1.2-0.3c-0.2-0.2-0.3-0.5-0.3-0.8v-35.7c0-0.6,0.4-0.9,1.2-0.9H706.7z M694.4,965v12.5
			h11.3c0.8,0,1.7-0.1,2.7-0.3s1.9-0.5,2.7-1c0.8-0.5,1.5-1.1,2.1-1.9s0.8-1.8,0.8-3.1c0-1.7-0.6-3.2-1.8-4.4
			c-1.2-1.2-3.2-1.8-6.2-1.8H694.4z M694.4,981.2v13.9h12c1.6,0,3-0.2,4.2-0.6c1.1-0.4,2-0.9,2.7-1.6c0.7-0.6,1.1-1.4,1.4-2.2
			c0.3-0.8,0.4-1.6,0.4-2.4c0-0.9-0.1-1.8-0.4-2.7s-0.7-1.6-1.4-2.2c-0.6-0.6-1.5-1.2-2.5-1.6c-1.1-0.4-2.4-0.6-3.9-0.6H694.4z"/>
		<path style="fill:#DD6B27;" d="M743.6,960.5c3.3,0,5.9,0.5,7.9,1.5c2,1,3.5,2.3,4.7,3.8c1.1,1.6,1.9,3.4,2.3,5.4
			c0.4,2,0.6,4.1,0.6,6.2c0,1.2-0.2,2.1-0.7,2.8c-0.4,0.7-1.3,1-2.5,1h-23c0.1,2.6,0.3,4.8,0.6,6.6c0.3,1.8,0.8,3.3,1.5,4.5
			c0.7,1.1,1.8,2,3.2,2.5c1.4,0.5,3.2,0.8,5.5,0.8c0.8,0,1.7,0,2.8-0.1c1.1-0.1,2.2-0.2,3.3-0.3c1.1-0.1,2.2-0.2,3.3-0.3
			c1.1-0.1,1.9-0.2,2.6-0.2c0.5-0.1,0.9,0.2,1,0.6l0.2,1.2c0.2,0.6-0.1,1-0.9,1.3c-0.6,0.2-1.4,0.4-2.5,0.7c-1,0.2-2.1,0.4-3.3,0.6
			c-1.2,0.2-2.4,0.3-3.6,0.4c-1.2,0.1-2.3,0.2-3.3,0.2c-3.5,0-6.2-0.5-8.2-1.6c-2-1.1-3.5-2.5-4.5-4.3c-1-1.8-1.6-3.9-1.9-6.3
			c-0.3-2.4-0.4-4.9-0.4-7.5c0-2.2,0.1-4.5,0.4-6.8c0.3-2.3,0.9-4.4,1.9-6.2c1-1.9,2.5-3.4,4.6-4.6
			C737.3,961,740.1,960.5,743.6,960.5z M743.6,964.2c-2.4,0-4.2,0.3-5.6,0.9c-1.4,0.6-2.4,1.5-3.2,2.6c-0.7,1.1-1.2,2.5-1.5,4.2
			c-0.2,1.7-0.4,3.6-0.5,5.7h21.7c-0.1-1.6-0.2-3.2-0.4-4.8c-0.2-1.6-0.7-3.1-1.4-4.3c-0.7-1.3-1.8-2.3-3.3-3.1
			C748,964.6,746.1,964.2,743.6,964.2z"/>
		<path style="fill:#DD6B27;" d="M772.9,1011.3c0,0.5-0.1,0.8-0.3,1c-0.2,0.2-0.5,0.2-0.9,0.2h-2.1c-0.7,0-1-0.4-1-1.2v-48.9
			c0-0.8,0.3-1.2,1-1.2h2.1c0.4,0,0.7,0.1,0.9,0.2c0.2,0.2,0.3,0.5,0.3,0.9l-0.1,3.4c0.5-0.4,1.3-0.8,2.3-1.4c1-0.6,2.2-1.2,3.4-1.7
			c1.3-0.6,2.7-1.1,4.1-1.5c1.5-0.4,3-0.7,4.5-0.7c2.3,0,4.2,0.4,5.7,1.2c1.5,0.8,2.7,1.9,3.6,3.5c0.9,1.6,1.5,3.5,1.9,5.9
			c0.4,2.4,0.5,5.1,0.5,8.3c0,3.3-0.2,6.2-0.7,8.8s-1.2,4.6-2.3,6.3c-1.1,1.7-2.6,3-4.4,3.8c-1.9,0.9-4.2,1.3-7.1,1.3
			c-1.5,0-3.2-0.2-5.1-0.5c-1.9-0.3-4.1-1-6.4-2l-0.1,0.2V1011.3z M772.9,993.7c2.3,0.7,4.4,1.2,6.4,1.6c1.9,0.3,3.8,0.5,5.7,0.5
			c1.9,0,3.5-0.3,4.7-0.9s2.2-1.5,2.9-2.8c0.7-1.3,1.2-3,1.5-5.1c0.3-2.1,0.4-4.7,0.4-7.8c0-3.1-0.1-5.5-0.4-7.5
			c-0.3-1.9-0.7-3.5-1.3-4.6c-0.6-1.1-1.4-1.9-2.4-2.3s-2.3-0.6-3.7-0.6c-1.1,0-2.3,0.2-3.6,0.6c-1.3,0.4-2.6,0.8-3.9,1.4
			s-2.5,1-3.6,1.6c-1.1,0.5-2,1-2.7,1.4V993.7z"/>
		<path style="fill:#DD6B27;" d="M822.7,960.5c0.7,0,1.5,0,2.5,0.1c1,0.1,2,0.1,3,0.3s2,0.3,3,0.5c1,0.2,1.9,0.5,2.6,0.8
			c0.4,0.2,0.6,0.4,0.7,0.6c0,0.3,0,0.5,0,0.7l-0.3,1.3c-0.1,0.3-0.2,0.4-0.5,0.5c-0.3,0.1-0.6,0.1-0.9,0c-0.7-0.1-1.4-0.1-2.3-0.2
			s-1.7-0.2-2.7-0.3c-0.9-0.1-1.8-0.1-2.8-0.2c-0.9-0.1-1.7-0.1-2.5-0.1c-2,0-3.7,0.2-5,0.7s-2.3,1.3-3.1,2.5s-1.3,2.8-1.5,4.7
			c-0.3,2-0.4,4.4-0.4,7.4c0,3.1,0.2,5.6,0.5,7.6c0.3,2,0.8,3.7,1.6,4.9c0.7,1.2,1.8,2.1,3.1,2.6c1.3,0.5,2.9,0.8,5,0.8
			c0.5,0,1.2,0,2.1-0.1c0.9-0.1,1.8-0.1,2.8-0.2c1-0.1,2-0.2,3-0.2c1-0.1,1.9-0.2,2.8-0.3c0.6,0,1,0.2,1,0.7l0.2,1
			c0.1,0.3,0,0.5-0.1,0.7s-0.4,0.4-0.8,0.6c-1.2,0.5-2.9,0.9-5,1.1c-2.1,0.3-4.1,0.4-6,0.4c-3.2,0-5.8-0.5-7.7-1.5
			c-1.9-1-3.4-2.3-4.5-4.1c-1-1.8-1.7-3.8-2.1-6.2c-0.3-2.4-0.5-5-0.5-7.9c0-2.5,0.2-5,0.5-7.3c0.3-2.3,1-4.4,2.1-6.2
			c1-1.8,2.5-3.2,4.5-4.3C816.9,961,819.5,960.5,822.7,960.5z"/>
		<path style="fill:#DD6B27;" d="M843.1,962.3c0-0.7,0.4-1.1,1.1-1.1h2.1c0.7,0,1,0.4,1,1.1v29.4l9.8-13.5l11.8-16
			c0.3-0.3,0.5-0.5,0.7-0.7c0.2-0.2,0.5-0.3,0.9-0.3h1.8c0.7,0,1.1,0.3,1.1,1v35.6c0,0.7-0.4,1.1-1.2,1.1h-2c-0.8,0-1.2-0.4-1.2-1.1
			v-30.3l-8.4,11.8l-13.7,18.7c-0.2,0.2-0.3,0.4-0.5,0.5c-0.2,0.2-0.5,0.2-0.9,0.2h-1.5c-0.7,0-1-0.4-1-1.1V962.3z"/>
		<path style="fill:#DD6B27;" d="M910.4,965h-11.7v32.9c0,0.7-0.4,1-1.2,1h-1.9c-0.8,0-1.3-0.3-1.3-1V965h-11.6
			c-0.8,0-1.2-0.4-1.2-1.1v-1.7c0-0.7,0.4-1,1.2-1h27.7c0.4,0,0.7,0.1,0.8,0.3c0.1,0.2,0.2,0.4,0.2,0.7v1.7
			C911.5,964.7,911.1,965,910.4,965z"/>
		<path style="fill:#DD6B27;" d="M933.1,960.5c3.3,0,5.9,0.5,7.9,1.5c2,1,3.5,2.3,4.7,3.8c1.1,1.6,1.9,3.4,2.3,5.4
			c0.4,2,0.6,4.1,0.6,6.2c0,1.2-0.2,2.1-0.7,2.8c-0.4,0.7-1.3,1-2.5,1h-23c0.1,2.6,0.3,4.8,0.6,6.6c0.3,1.8,0.8,3.3,1.5,4.5
			c0.7,1.1,1.8,2,3.2,2.5c1.4,0.5,3.2,0.8,5.5,0.8c0.8,0,1.7,0,2.8-0.1c1.1-0.1,2.2-0.2,3.3-0.3c1.1-0.1,2.2-0.2,3.3-0.3
			c1.1-0.1,1.9-0.2,2.6-0.2c0.5-0.1,0.9,0.2,1,0.6l0.2,1.2c0.2,0.6-0.1,1-0.9,1.3c-0.6,0.2-1.4,0.4-2.5,0.7c-1,0.2-2.1,0.4-3.3,0.6
			c-1.2,0.2-2.4,0.3-3.6,0.4c-1.2,0.1-2.3,0.2-3.3,0.2c-3.5,0-6.2-0.5-8.2-1.6c-2-1.1-3.5-2.5-4.5-4.3c-1-1.8-1.6-3.9-1.9-6.3
			c-0.3-2.4-0.4-4.9-0.4-7.5c0-2.2,0.1-4.5,0.4-6.8c0.3-2.3,0.9-4.4,1.9-6.2c1-1.9,2.5-3.4,4.6-4.6
			C926.7,961,929.5,960.5,933.1,960.5z M933.1,964.2c-2.4,0-4.2,0.3-5.6,0.9c-1.4,0.6-2.4,1.5-3.2,2.6c-0.7,1.1-1.2,2.5-1.5,4.2
			c-0.2,1.7-0.4,3.6-0.5,5.7H944c-0.1-1.6-0.2-3.2-0.4-4.8c-0.2-1.6-0.7-3.1-1.4-4.3c-0.7-1.3-1.8-2.3-3.3-3.1
			C937.5,964.6,935.6,964.2,933.1,964.2z"/>
		<path style="fill:#DD6B27;" d="M983.6,965h-11.7v32.9c0,0.7-0.4,1-1.2,1h-1.9c-0.8,0-1.3-0.3-1.3-1V965h-11.6
			c-0.8,0-1.2-0.4-1.2-1.1v-1.7c0-0.7,0.4-1,1.2-1h27.7c0.4,0,0.7,0.1,0.8,0.3c0.1,0.2,0.2,0.4,0.2,0.7v1.7
			C984.6,964.7,984.3,965,983.6,965z"/>
	</g>
	<g>
		<g>
			<linearGradient id="SVGID_1_" gradientUnits="userSpaceOnUse" x1="1085.8807" y1="228.5621" x2="410.6941" y2="1033.2181">
				<stop  offset="0" style="stop-color:#F08B22"/>
				<stop  offset="0.7268" style="stop-color:#E97125"/>
				<stop  offset="0.9996" style="stop-color:#A75317"/>
			</linearGradient>
			<path style="fill:url(#SVGID_1_);" d="M794.7,564.1v194.7h-39.8v-112c0-2.6,0.1-5.4,0.2-8.4c0.1-3,0.4-6.1,0.7-9.2l-51.7,100.1
				c-1.6,3.1-3.8,5.5-6.5,7.1c-2.7,1.6-5.8,2.4-9.3,2.4h-6.1c-3.5,0-6.6-0.8-9.3-2.4c-2.7-1.6-4.9-4-6.5-7.1l-51.7-100.4
				c0.3,3.2,0.5,6.3,0.7,9.4c0.2,3.1,0.3,5.9,0.3,8.5v112h-39.8V564.1h34.5c2,0,3.7,0,5.1,0.1c1.5,0.1,2.8,0.4,3.9,0.8
				c1.2,0.4,2.2,1.1,3.1,2.1c0.9,0.9,1.8,2.3,2.7,3.9l50.1,98.8c1.8,3.4,3.5,6.9,5.1,10.6c1.6,3.7,3.2,7.4,4.7,11.2
				c1.5-3.9,3.1-7.8,4.7-11.5c1.6-3.7,3.4-7.3,5.3-10.7l50-98.4c0.9-1.7,1.8-3,2.7-3.9c0.9-0.9,2-1.6,3.1-2.1
				c1.2-0.4,2.5-0.7,3.9-0.8c1.5-0.1,3.2-0.1,5.1-0.1H794.7z M1002.7,564.1v194.7h-45.4V649.8c0-5.1,0.2-10.4,0.5-16.1
				c0.3-5.7,0.9-11.7,1.8-18.1c-2.1,5.7-4.3,11-6.7,15.8c-2.4,4.9-4.8,9.1-7.1,12.8l-59.2,101.2c-1,1.6-2.2,3.2-3.5,4.8
				c-1.4,1.6-2.9,3.1-4.6,4.3c-1.7,1.3-3.5,2.3-5.5,3.1c-2,0.8-4,1.2-6.1,1.2h-34.1V564.1h45.4V673c0,5.1-0.1,10.4-0.4,16.1
				c-0.3,5.7-0.9,11.7-1.9,18.1c2-5.6,4.3-10.8,6.7-15.7c2.4-4.9,4.8-9.1,7.1-12.8l59.2-101.2c1-1.6,2.2-3.2,3.5-4.8
				c1.4-1.6,2.9-3.1,4.6-4.3c1.7-1.3,3.5-2.3,5.5-3.1c2-0.8,4-1.2,6.1-1.2H1002.7z M1183.2,602.6c-3-7.8-7.7-14.5-14.1-20.2
				c-6.4-5.7-14.5-10.2-24.3-13.4c-9.8-3.3-21.6-4.9-35.4-4.9h-68.7v194.7h45.2v-65.1h23.5c13.5,0,25.1-1.6,35-4.9
				c9.8-3.3,18-7.8,24.4-13.6c6.4-5.8,11.2-12.7,14.3-20.9c3.1-8.1,4.7-17,4.7-26.7C1187.8,618.7,1186.2,610.3,1183.2,602.6z
				 M1134.8,651.2c-5.2,5.6-13.6,8.4-25.4,8.4h-23.5v-61.8h23.5c5.7,0,10.6,0.7,14.8,2.1c4.1,1.4,7.6,3.5,10.3,6.1
				c2.7,2.6,4.7,5.8,6.1,9.4c1.3,3.7,2,7.7,2,12.2C1142.6,637.8,1140,645.6,1134.8,651.2z M1199.8,587.9c3.7-3.7,7.8-7.2,12.5-10.4
				c4.7-3.2,9.8-5.9,15.4-8.2c5.6-2.3,11.7-4.1,18.2-5.3c6.5-1.3,13.4-1.9,20.7-1.9c14.3,0,27.5,2.5,39.4,7.4
				c11.9,4.9,22.2,11.8,30.7,20.6c8.6,8.8,15.2,19.3,19.9,31.5c4.7,12.2,7.1,25.5,7.1,40c0,14.3-2.2,27.5-6.5,39.6
				c-4.4,12.2-10.6,22.7-18.8,31.5c-8.2,8.9-18.1,15.8-29.8,20.9c-11.7,5-25,7.6-39.8,7.6c-16.1,0-30.1-2.6-41.9-7.8
				c-11.8-5.2-21.6-12.9-29.5-23.2l17.9-18.8c1-1,2-1.7,3.1-2.1c1.1-0.4,2.1-0.6,3.2-0.6c1.3,0,2.6,0.3,3.9,0.9
				c1.2,0.6,2.4,1.3,3.5,2.2c2.7,2.4,5.3,4.4,7.9,5.9c2.6,1.6,5.3,2.8,8.3,3.7c2.9,0.9,6.1,1.6,9.4,2c3.3,0.4,7.1,0.6,11.3,0.6
				c6.1,0,12-1,17.5-3.1c5.5-2,10.5-5.1,15-9.1c4.5-4,8.2-9,11.4-14.8c3.1-5.9,5.3-12.7,6.5-20.3h-82.9v-32.3h82.6
				c-1.3-7.2-3.5-13.6-6.3-19.2c-2.9-5.6-6.5-10.3-10.7-14.1c-4.2-3.8-9.1-6.7-14.5-8.7c-5.4-2-11.3-2.9-17.6-2.9
				c-7.1,0-12.9,0.7-17.3,2.2c-4.4,1.5-8.1,3.1-11.1,4.8c-3,1.7-5.5,3.3-7.6,4.8c-2.1,1.5-4.3,2.2-6.7,2.2c-2.4,0-4.3-0.5-5.6-1.5
				c-1.3-1-2.5-2.2-3.5-3.4L1199.8,587.9z M1485.7,564.1h-46.2l-75.4,194.7h35.3c3.7,0,6.9-1,9.4-3c2.5-2,4.3-4.3,5.3-6.7l11.5-34
				h74l11.5,34c1.2,2.9,3.1,5.2,5.5,7c2.4,1.8,5.6,2.7,9.5,2.7h35L1485.7,564.1z M1436,684.4l17.9-53.1c1.3-3.4,2.8-7.4,4.3-12
				c1.5-4.6,2.9-9.7,4.3-15.1c1.5,5.3,3,10.3,4.5,14.9c1.5,4.6,2.9,8.6,4.3,12l18,53.3H1436z M514.7,948
				c-106.8-4.6-206.5-48.4-282.5-124.5c-80.8-80.8-126-191.4-124.9-305.7c1.1-110.9,44.2-215.1,121.9-294.3
				c80.1-81.6,190.1-127.9,304.4-127.9c113.9,0,221,44.4,301.5,124.9c76.1,76.1,119.8,175.8,124.5,282.6c0.5,10.6,9.3,18.9,20,18.9
				h24.7c0-259.9-210.7-470.6-470.6-470.6C274,51.4,63,262.4,63,522C63,782,273.7,992.7,533.7,992.7V968
				C533.7,957.3,525.3,948.5,514.7,948z M530,264.1C391,266,277.6,379.4,275.7,518.4C273.7,662.5,390,780,533.7,780v-25.1
				c0-10.5-8.1-19-18.6-19.9c-113-9.8-201.1-107.8-194.9-224.6C326,402,413.7,314.4,522,308.6c116.8-6.2,214.8,81.9,224.6,194.9
				c0.9,10.4,9.5,18.6,19.9,18.6h25.1C791.6,378.3,674.2,262.1,530,264.1z M533.7,157.6C332.6,157.6,169.3,321,169.3,522
				c0,201.3,163.2,364.4,364.4,364.4v-24.8c0-10.6-8.2-19.3-18.8-19.9c-79.5-4.6-153.6-38.1-209.9-95.5
				c-57.5-58.6-90.4-137.7-91.5-219.8c-1.2-88.5,33.4-171.9,96.8-233.7c58.8-57.3,138-89.9,220.1-90.8
				c86.7-0.9,168.4,32.5,229.7,93.8c56,56,88.7,129.2,93.2,207.6c0.6,10.6,9.4,18.8,19.9,18.8h24.8
				C898.1,320.8,734.9,157.6,533.7,157.6z"/>
		</g>
	</g>
	<g id="XMLID_11_">
		<g>
			<path style="fill:#DD6B27;" d="M479.7,567.4c-4.1-4.1-9.5-6.3-15.3-6.3c-5.8,0-11.2,2.3-15.3,6.3l-40.8,40.9
				c-4.1,4.1-6.3,9.5-6.3,15.3c0,5.8,2.3,11.2,6.3,15.3c4.1,4.1,9.5,6.4,15.3,6.4c5.8,0,11.2-2.3,15.3-6.3l40.8-40.9
				C487.9,589.9,487.9,575.6,479.7,567.4z M470.4,588.8l-40.8,40.9c-1.6,1.6-3.8,2.5-6,2.5c-2.3,0-4.4-0.9-6-2.5
				c-3.2-3.2-3.2-8.8,0-12l40.9-40.9c1.6-1.6,3.7-2.5,6-2.5c2.3,0,4.4,0.9,6,2.5c1.6,1.6,2.5,3.8,2.5,6
				C472.9,585.1,472,587.2,470.4,588.8z"/>
		</g>
		<g>
			<path style="fill:none;stroke:#DD6B27;stroke-width:0.5;stroke-miterlimit:10;" d="M479.7,567.4c-4.1-4.1-9.5-6.3-15.3-6.3
				c-5.8,0-11.2,2.3-15.3,6.3l-40.8,40.9c-4.1,4.1-6.3,9.5-6.3,15.3c0,5.8,2.3,11.2,6.3,15.3c4.1,4.1,9.5,6.4,15.3,6.4
				c5.8,0,11.2-2.3,15.3-6.3l40.8-40.9C487.9,589.9,487.9,575.6,479.7,567.4z M470.4,588.8l-40.8,40.9c-1.6,1.6-3.8,2.5-6,2.5
				c-2.3,0-4.4-0.9-6-2.5c-3.2-3.2-3.2-8.8,0-12l40.9-40.9c1.6-1.6,3.7-2.5,6-2.5c2.3,0,4.4,0.9,6,2.5c1.6,1.6,2.5,3.8,2.5,6
				C472.9,585.1,472,587.2,470.4,588.8z"/>
		</g>
	</g>
	<g>
		<g>
			<path style="fill:#DD6B27;" d="M434.1,582.8c-4.6-7.9-10.3-23.1-12.9-32.5l-31.7-4.2c-3-0.4-5.3-3-5.3-6l-0.1-35.2
				c0-3.1,2.2-5.6,5.2-6.1l31.9-4.9c2.4-8.8,5.8-17.3,10.4-25.2l-19.3-25.6c-1.8-2.4-1.6-5.8,0.5-8l24.8-25c1.2-1.2,2.7-1.8,4.3-1.8
				c1.3,0,2.6,0.4,3.6,1.2l26,19c8.1-4.7,16.8-8.3,25.7-10.7l3.9-31.4c0.4-3,3-5.4,6-5.4l35.2-0.1c3.1,0,5.6,2.2,6.1,5.2l4.8,31.8
				c9,2.5,17.6,6.1,25.7,10.8l25.2-19.7c1.1-0.8,2.4-1.3,3.8-1.3c1.6,0,3.2,0.6,4.3,1.8l25,24.8c2.2,2.1,2.4,5.6,0.6,8L618,468.2
				c4.6,8,8.2,16.6,10.6,25.6l32.2,4.1c3,0.4,5.3,3,5.3,6.1l0.1,35.2c0,3.1-2.2,5.6-5.2,6.1l-30.7,4.5l-0.1-0.1
				c-0.4-0.6-0.8-1-1.2-1.4c-1.4-1.5-3-2.7-4.8-3.4c-1.8-0.7-3.8-1.2-6.1-1.3l-0.5,0l0.1-0.3c0.6-2.5,2.6-4.3,5.1-4.7l31.1-4.5
				l-0.1-24.5l-31-4c-2.5-0.3-4.6-2.2-5.2-4.7c-2.4-10.5-6.5-20.5-12.3-29.6c-1.4-2.2-1.2-5,0.3-7l18.9-24.8L607.3,422L583,441
				c-1.1,0.8-2.4,1.3-3.8,1.3c-1.2,0-2.3-0.3-3.3-1c-9.1-5.8-19.1-10-29.6-12.5c-2.5-0.6-4.3-2.6-4.7-5l-4.6-30.6l-24.5,0.1
				l-3.8,30.2c-0.3,2.6-2.2,4.7-4.7,5.2c-10.5,2.3-20.5,6.5-29.7,12.3c-1,0.6-2.1,0.9-3.3,0.9c-1.3,0-2.6-0.4-3.6-1.2l-25.1-18.3
				L425.1,440l18.6,24.7c0.8,1.1,1.2,2.4,1.2,3.7c0,1.1-0.3,2.2-0.9,3.2c-5.6,9.1-9.7,18.9-12,29.2c-0.6,2.5-2.5,4.3-5,4.7
				l-30.7,4.7l0.1,24.6l30.6,4.1c2.5,0.3,4.6,2.2,5.2,4.7c2.4,10.4,6.5,20.2,12.2,29.3c0.5,0.8-0.1,1.3-0.5,1.6
				c-0.5,0.4-1,0.8-0.8,1.8l0,0.1l-0.1,0.1c-0.7,0.6-1.2,1-1.6,1.3l-0.1-0.1l-7,5.4L434.1,582.8z"/>
			<path style="fill:#DD6B27;" d="M542.3,381.2c2.9,0,5.4,2.1,5.8,5l4.8,32c9.1,2.5,17.8,6.1,25.9,10.9l25.3-19.8
				c1.1-0.8,2.3-1.2,3.6-1.2c1.5,0,3,0.6,4.1,1.7l25,24.8c2.1,2.1,2.3,5.4,0.5,7.7l-19.7,25.9c4.7,8.1,8.3,16.8,10.7,25.8l32.4,4.2
				c2.9,0.4,5.1,2.9,5.1,5.8l0.1,35.2v0c0,2.9-2.1,5.4-5,5.8l-30.5,4.4c-0.4-0.5-0.8-1-1.2-1.5c-1.5-1.6-3.1-2.7-4.9-3.5
				c-1.8-0.7-3.9-1.2-6.1-1.3c-0.1,0-0.1,0-0.2,0c0.6-2.4,2.5-4.1,4.9-4.5l31.4-4.6l-0.1-25l-31.2-4c-2.4-0.3-4.4-2.1-5-4.5
				c-2.4-10.5-6.5-20.5-12.3-29.7c-1.3-2.1-1.2-4.7,0.3-6.7l19-25l-17.7-17.6l-24.4,19.1c-1.1,0.8-2.3,1.2-3.6,1.2
				c-1.1,0-2.2-0.3-3.2-0.9c-9.1-5.8-19.1-10-29.7-12.5c-2.3-0.5-4.1-2.5-4.5-4.8l-4.6-30.9l-24.9,0.1l-3.8,30.5
				c-0.3,2.5-2.1,4.5-4.5,5c-10.5,2.4-20.5,6.5-29.7,12.3c-1,0.6-2,0.9-3.1,0.9c-1.2,0-2.4-0.4-3.5-1.1l-25.2-18.4L424.7,440
				l18.7,24.9c0.8,1,1.2,2.3,1.2,3.5c0,1.1-0.3,2.1-0.9,3.1c-5.6,9.1-9.7,18.9-12,29.2c-0.5,2.4-2.4,4.1-4.8,4.5l-30.9,4.7l0.1,25
				l30.8,4.1c2.4,0.3,4.4,2.1,4.9,4.5c2.4,10.4,6.5,20.3,12.2,29.4c0.8,1.3-1.8,1.2-1.4,3.4c-0.7,0.6-1.2,1-1.6,1.3
				c0.1-0.1,0.2-0.3,0.4-0.4l-7.2,5.6c-4.7-8.1-10.5-23.6-12.9-32.6l-31.9-4.2c-2.9-0.4-5.1-2.9-5.1-5.8l-0.1-35.2c0,0,0,0,0,0
				c0-2.9,2.1-5.4,5-5.8l32-4.9c2.4-8.9,5.9-17.4,10.5-25.4L412.3,443c-1.8-2.3-1.5-5.6,0.5-7.7l24.8-25c1.1-1.1,2.6-1.7,4.2-1.7
				c1.2,0,2.4,0.4,3.5,1.1l26.1,19.1c8.2-4.7,16.9-8.4,26-10.8l3.9-31.6c0.4-2.9,2.9-5.1,5.8-5.1L542.3,381.2
				C542.3,381.2,542.3,381.2,542.3,381.2 M542.3,380.7L542.3,380.7L542.3,380.7l-35.2,0.1c-3.2,0-5.9,2.4-6.3,5.6l-3.9,31.2
				c-8.9,2.4-17.4,5.9-25.5,10.6l-25.9-18.9c-1.1-0.8-2.4-1.2-3.8-1.2c-1.7,0-3.3,0.7-4.5,1.9l-24.8,25c-2.2,2.2-2.5,5.8-0.6,8.3
				l19.2,25.5c-4.5,7.9-7.9,16.3-10.3,25l-31.7,4.9c-3.1,0.5-5.4,3.1-5.4,6.3l0.1,35.2c0,3.2,2.4,5.9,5.5,6.3l31.6,4.2
				c2.6,9.4,8.3,24.5,12.8,32.4l0.3,0.5l0.5-0.3l6.8-5.2l0.1,0.1c0.4-0.3,0.9-0.7,1.6-1.3l0.2-0.2l-0.1-0.3
				c-0.2-0.8,0.3-1.2,0.7-1.6c0.4-0.4,1.2-1,0.5-2c-5.7-9.1-9.8-18.9-12.2-29.3c-0.6-2.6-2.8-4.5-5.4-4.9l-30.4-4l-0.1-24.1
				l30.5-4.7c2.6-0.4,4.7-2.3,5.2-4.9c2.3-10.3,6.3-20,12-29.1c0.6-1,1-2.2,1-3.4c0-1.4-0.5-2.7-1.3-3.8L425.4,440l17.1-17.2
				l24.9,18.2c1.1,0.8,2.4,1.2,3.8,1.2c1.2,0,2.4-0.3,3.4-1c9.2-5.8,19.1-9.9,29.6-12.2c2.6-0.6,4.6-2.8,4.9-5.4l3.7-30l24.1-0.1
				l4.6,30.4c0.4,2.6,2.3,4.7,4.9,5.3c10.5,2.4,20.5,6.6,29.6,12.4c1,0.7,2.2,1,3.4,1c1.4,0,2.8-0.5,3.9-1.3l24.1-18.8l17,16.9
				l-18.7,24.6c-1.6,2.1-1.7,5-0.3,7.3c5.8,9.1,9.9,19.1,12.2,29.5c0.6,2.6,2.8,4.6,5.4,4.9l30.8,4l0.1,24.1l-30.9,4.5
				c-2.6,0.4-4.7,2.3-5.3,4.9l-0.1,0.6l0.6,0l0.1,0l0.1,0c2.2,0.1,4.2,0.6,6,1.3c1.7,0.7,3.3,1.8,4.7,3.3c0.4,0.4,0.7,0.9,1.2,1.4
				l0.2,0.2l0.3,0l30.5-4.4c3.2-0.5,5.5-3.1,5.5-6.3l-0.1-35.2c0-3.2-2.4-5.9-5.6-6.3l-32-4.1c-2.4-8.9-5.9-17.4-10.5-25.3
				l19.5-25.6c1.9-2.5,1.7-6.1-0.6-8.4l-25-24.8c-1.2-1.2-2.8-1.9-4.5-1.9c-1.4,0-2.8,0.5-3.9,1.3l-25,19.6
				c-8-4.6-16.5-8.2-25.4-10.7l-4.8-31.7C548.1,383,545.4,380.7,542.3,380.7L542.3,380.7z"/>
		</g>
		<g>
			<path style="fill:#DD6B27;" d="M439.9,578.7l-0.1-0.2c-0.1-0.2-0.1-0.2,1.1-1.2l0.3,0.4c0,0-0.9,1-1.2,1H439.9z"/>
			<path style="fill:#DD6B27;" d="M441.1,577.6c-0.5,0.5-1,0.9-1,0.9C440.1,578.5,440.3,578.2,441.1,577.6 M440.8,577.2
				c-1.1,0.9-1.3,1.1-1.1,1.5l0.1,0.3l0.4,0c0.3,0,1-0.7,1.4-1.1L440.8,577.2L440.8,577.2z"/>
		</g>
		<g>
			<path style="fill:#DD6B27;" d="M508,663.1c-3,0-5.6-2.2-6-5.2L497,626c-8.8-2.4-24.4-9.3-32.5-14l-0.3-0.2l6.6-7.4l3.6-1.5
				l0.1,0.1c9.1,5.7,18.9,9.8,29.2,12.1c2.5,0.6,4.3,2.5,4.7,5l4.7,30.7l24.6-0.1l4-30.7c0.3-2.5,2.2-4.6,4.7-5.2
				c3.2-0.7,6.5-1.7,9.9-2.9l0.3-0.1v12.9l-0.2,0.1c-0.4,0.1-0.7,0.2-1.1,0.4c-0.7,0.2-1.3,0.4-2,0.6l-4.2,31.8
				c-0.4,3-3,5.3-6.1,5.3L508,663.1z"/>
			<path style="fill:#DD6B27;" d="M474.4,603.2c9.1,5.7,19,9.8,29.3,12.1c2.3,0.5,4.1,2.4,4.5,4.8l4.8,30.9l25-0.1l4-30.9
				c0.3-2.4,2.1-4.4,4.5-4.9c3.4-0.8,6.7-1.8,9.9-2.9v12.3c-1.1,0.3-2.2,0.7-3.3,1l-4.2,32c-0.4,2.9-2.9,5.1-5.8,5.1l-35.2,0.1
				c0,0,0,0,0,0c-2.9,0-5.4-2.1-5.8-5l-4.9-32.1c-8.9-2.4-24.6-9.4-32.6-14.1l6.4-7.1L474.4,603.2 M474.5,602.7l-0.2,0.1l-3.5,1.4
				l-0.1,0l-0.1,0.1l-6.4,7.1l-0.4,0.5l0.5,0.3c8.1,4.7,23.6,11.6,32.4,14l4.9,31.7c0.5,3.1,3.1,5.4,6.3,5.4l35.2-0.1
				c3.2,0,5.9-2.4,6.3-5.5l4.2-31.7c0.6-0.2,1.3-0.4,1.9-0.6c0.4-0.1,0.7-0.2,1.1-0.4l0.4-0.1v-0.4v-12.3v-0.7l-0.7,0.2
				c-3.3,1.2-6.7,2.1-9.9,2.9c-2.6,0.6-4.5,2.7-4.9,5.4l-4,30.4l-24.1,0.1l-4.7-30.5c-0.4-2.6-2.3-4.7-4.9-5.2
				c-10.2-2.3-20-6.4-29.1-12.1L474.5,602.7L474.5,602.7z"/>
		</g>
		<g>
			<path style="fill:#DD6B27;" d="M474.3,603.4c-0.6-0.4-0.8-0.7-0.7-1c0.1-0.3,0.5-0.5,0.8-0.5c0.4,0,0.7,0.2,0.8,0.4
				c0.1,0.3-0.1,0.7-0.6,1.1l-0.1,0.1L474.3,603.4z"/>
			<path style="fill:#DD6B27;" d="M474.4,602.2c0.5,0,0.9,0.3,0,1C473.4,602.6,473.9,602.2,474.4,602.2 M474.4,601.7
				c-0.5,0-1,0.3-1.1,0.7c-0.1,0.5,0.1,0.9,0.8,1.3l0.3,0.2l0.3-0.2c0.6-0.5,0.8-0.9,0.7-1.4C475.3,601.9,474.9,601.7,474.4,601.7
				L474.4,601.7z"/>
		</g>
	</g>
	<g>
		<path style="fill:#DD6B27;" d="M525.1,581.7c-32.5,0-58.9-26.4-58.9-58.9c0-15.7,6.1-30.5,17.3-41.7
			c11.1-11.1,25.9-17.3,41.7-17.3c0,0,0,0,0,0c32.5,0,58.9,26.4,58.9,58.9c0,7.1-1.3,14.2-3.9,21l-0.1,0.2h-13.4l0.2-0.4
			c3.3-6.6,4.9-13.6,4.9-20.8c0-12.5-4.9-24.2-13.7-33c-8.8-8.8-20.6-13.7-33-13.7c-12.5,0-24.2,4.9-33,13.7
			c-8.8,8.8-13.7,20.6-13.7,33c0,12.5,4.9,24.2,13.7,33c8.8,8.8,20.6,13.7,33,13.7c11.4,0,22.4-4.2,31-11.8l0.4-0.4v15.3l-0.1,0.1
			C547,578.5,536.2,581.7,525.1,581.7z"/>
		<path style="fill:#DD6B27;" d="M525.1,464c32.4,0,58.7,26.3,58.7,58.7c0,7.4-1.4,14.4-3.9,20.9h-12.8c3.2-6.3,5-13.4,5-20.9
			c0-25.9-21.1-47-47-47c-25.9,0-47,21.1-47,47c0,25.9,21.1,46.9,47,46.9c12,0,22.8-4.5,31.1-11.9v14.6c-9,5.7-19.7,9-31.1,9
			c-32.4,0-58.7-26.3-58.7-58.7C466.4,490.4,492.8,464,525.1,464 M525.1,463.5C525.1,463.5,525.1,463.5,525.1,463.5
			c-15.8,0-30.6,6.2-41.8,17.4c-11.2,11.2-17.4,26-17.4,41.8c0,32.6,26.6,59.2,59.2,59.2c11.1,0,21.9-3.2,31.4-9.1l0.2-0.1v-0.3
			v-14.6v-1.1l-0.8,0.7c-8.5,7.6-19.5,11.8-30.8,11.8c-12.4,0-24.1-4.8-32.8-13.6c-8.8-8.8-13.6-20.4-13.6-32.8
			c0-12.4,4.8-24.1,13.6-32.8c8.8-8.8,20.4-13.6,32.8-13.6c12.4,0,24,4.8,32.8,13.6c8.8,8.8,13.6,20.4,13.6,32.8
			c0,7.2-1.7,14.2-4.9,20.7l-0.4,0.7h0.8h12.8h0.3l0.1-0.3c2.6-6.8,3.9-13.9,3.9-21.1C584.3,490.1,557.8,463.5,525.1,463.5
			L525.1,463.5L525.1,463.5z"/>
	</g>
</g>
</svg>
